#N canvas 0 22 1203 383 10;
#X text 103 144 Shape;
#X text -104 2 Square;
#X text -52 0 Circle;
#X text -7 2 Triangle;
#X text 52 61 Cuboid;
#X text 100 0 Sphere;
#X text 151 2 Torus;
#X obj -242 -90 cnv 15 700 300 empty empty empty 20 12 0 14 -233017
-66577 0;
#X obj 76 117 bng 50 250 50 0 SAVE empty empty 17 7 0 10 -262144 -1
-1;
#X text 67 93 CHOSE FILE NAME/SAVE LOCATION;
#X obj 388 -81 tgl 15 0 MANUALCLICK CLICK empty 17 7 0 10 -258113 -257985
-1 0 1;
#X text 411 -84 RECORD;
#N canvas 19 50 450 301 gemcode 0;
#X obj 167 248 gemwin;
#X msg 217 198 1;
#X msg 149 197 create;
#X msg 272 200 destroy;
#X obj 164 62 tgl 15 0 maintog empty empty 17 7 0 10 -262144 -1 -1
0 1;
#X obj 164 101 == 1;
#X obj 205 101 == 0;
#X msg 317 128 dimen 800 800;
#X obj 315 96 loadbang;
#X obj 55 137 cyclone/gate;
#X obj 205 157 cyclone/gate;
#X connect 1 0 0 0;
#X connect 2 0 0 0;
#X connect 3 0 0 0;
#X connect 4 0 5 0;
#X connect 4 0 6 0;
#X connect 5 0 9 0;
#X connect 5 0 9 1;
#X connect 6 0 10 0;
#X connect 6 0 10 1;
#X connect 7 0 0 0;
#X connect 8 0 7 0;
#X connect 9 0 2 0;
#X connect 9 0 1 0;
#X connect 10 0 3 0;
#X restore -235 -7 pd gemcode;
#X obj -236 82 tgl 120 0 maintog empty empty 17 7 0 10 -262144 -1 -1
0 1;
#X obj -108 111 bng 80 250 50 0 imageload empty empty 17 7 0 10 -262144
-1 -1;
#X text -234 62 OPEN WINDOW;
#X obj -111 24 hradio 50 1 0 8 shape empty empty 0 -8 0 10 -262144
-1 -1 0;
#X text -104 2 Square;
#X text -52 2 Circle;
#X text -7 2 Triangle;
#X text 51 2 Cuboid;
#X text 100 2 Sphere;
#X text 151 2 Torus;
#X obj -21 110 bng 80 250 50 0 videoload empty empty 17 7 0 10 -262144
-1 -1;
#X obj 291 -82 vradio 50 1 0 2 inswitch empty empty 1 -8 0 10 -262144
-1 -1 0;
#X text 254 -68 IMAGE;
#X text 254 -17 VIDEO;
#N canvas 561 244 450 300 listshit 0;
#X obj 128 93 bng 15 250 50 0 empty empty empty 17 7 0 10 -262144 -1
-1;
#X obj 126 128 stat;
#X obj 128 162 list;
#X obj 126 185 list split 9;
#X obj 121 213 unpack symbol;
#X obj 114 283 system;
#X obj 124 338 print;
#X msg 112 237 python3 \$1/slit.py;
#X obj 308 204 unpack symbol;
#X msg 375 381 ulimit -n 2000;
#X obj 400 330 system;
#X obj 308 438 print;
#X msg 317 257 python3 \$1/slit.py;
#X msg 375 381 ulimit -n 2000;
#X connect 0 0 1 0;
#X connect 1 0 2 0;
#X connect 2 0 3 0;
#X connect 3 0 4 0;
#X connect 4 0 7 0;
#X connect 7 0 5 0;
#X connect 7 0 6 0;
#X connect 8 0 12 0;
#X connect 12 0 10 0;
#X connect 12 0 11 0;
#X restore -236 -35 pd listshit;
#N canvas 678 54 450 300 savefeedback 0;
#X obj 8 -515 tgl 15 0 CLICK empty empty 17 7 0 10 -262144 -1 -1 0
1;
#N canvas 293 346 666 273 save 0;
#X obj 29 19 cnv 15 600 200 empty empty empty 20 12 0 14 -204800 -1
0;
#X obj 218 116 savepanel;
#X obj 364 101 bng 15 250 50 0 empty SAVE empty 17 7 0 10 -262144 -1
-1;
#X msg 218 135 file \$1 type=0;
#X obj 338 165 bng 15 250 50 0 empty empty empty 17 7 0 10 -262144
-1 -1;
#X text 387 101 Step 2: Choose location/file name;
#X text 361 166 Step 3: take photo;
#X obj 95 125 tgl 15 0 empty empty empty 17 7 0 10 -262144 -1 -1 0
1;
#X obj 171 104 r fps;
#X obj 184 165 bng 15 50 20 0 empty empty empty 17 7 0 10 -262144 -1
-1;
#X obj 218 155 gemhead 50;
#X obj 218 180 pix_write 0 0;
#X obj 97 148 metro 0.001;
#X msg 363 54 400 0;
#X msg 306 54 1 800;
#X obj 336 29 loadbang;
#X obj 33 108 inlet;
#X text 411 33 STEP 1: set dimensions to gemwindow dimensions;
#X obj 364 80 inlet;
#X obj 494 154 s save;
#X connect 1 0 3 0;
#X connect 1 0 19 0;
#X connect 2 0 1 0;
#X connect 3 0 11 0;
#X connect 4 0 11 0;
#X connect 7 0 12 0;
#X connect 8 0 12 1;
#X connect 9 0 11 0;
#X connect 10 0 11 0;
#X connect 12 0 9 0;
#X connect 13 0 11 1;
#X connect 14 0 11 2;
#X connect 15 0 14 0;
#X connect 15 0 13 0;
#X connect 16 0 7 0;
#X connect 18 0 2 0;
#X restore 8 -455 pd save;
#X text 28 -523 when gemcode is clicked toggle box is triggered;
#N canvas 0 50 450 300 rclick 0;
#X obj 216 23 r click;
#X obj 216 62 == 1;
#X obj 261 62 == 0;
#X obj 261 85 gate;
#X obj 216 85 gate;
#X obj 261 108 bng 15 250 50 0 empty empty empty 17 7 0 10 -262144
-1 -1;
#X obj 216 109 bng 15 250 50 0 empty empty empty 17 7 0 10 -262144
-1 -1;
#X obj 226 156 outlet;
#X connect 0 0 1 0;
#X connect 0 0 2 0;
#X connect 1 0 4 0;
#X connect 1 0 4 1;
#X connect 2 0 3 0;
#X connect 2 0 3 1;
#X connect 3 0 5 0;
#X connect 4 0 6 0;
#X connect 5 0 7 0;
#X connect 6 0 7 0;
#X restore 8 -544 pd rclick;
#X obj 50 -489 bng 15 250 50 0 empty empty empty 17 7 0 10 -262144
-1 -1;
#X obj 182 -443 r MANUALCLICK;
#X connect 0 0 1 0;
#X connect 3 0 0 0;
#X connect 4 0 1 1;
#X connect 5 0 0 0;
#X restore -237 -61 pd savefeedback;
#X floatatom 138 129 5 0 0 0 - - X;
#X floatatom 138 149 5 0 0 0 - - Y;
#X text 175 127 X;
#X text 175 149 Y;
#N canvas 704 356 450 300 python/command 0;
#X obj -1018 132 system;
#X msg -1018 90 open /Users/NICK/Documents/Work/portfolio/slitstitch/main.command
;
#X obj -1017 12 r save;
#X obj -1017 57 textfile;
#X msg -1017 35 read location.txt \, clear \, add \$1 \, write location.txt
;
#X obj -933 59 bng 15 250 50 0 empty stitch empty 17 7 0 10 -262144
-1 -1;
#X connect 1 0 0 0;
#X connect 2 0 4 0;
#X connect 4 0 3 0;
#X connect 5 0 1 0;
#X restore -238 -84 pd python/command;
#X obj 364 118 cnv 15 80 80 empty empty empty 20 12 0 14 -33289 -66577
0;
#X obj 374 127 bng 59 250 50 0 empty empty empty 17 7 0 10 -258113
-261234 -1;
#X text 366 100 STITCH;
#X text 134 111 Image Size;
#X obj 522 142 tgl 15 0 empty empty empty 17 7 0 10 -262144 -1 -1 0
1;
#X floatatom 523 225 5 0 0 0 - - rotate;
#X obj 522 195 counter 1e+09;
#X obj 521 115 bng 15 250 50 0 empty empty empty 17 7 0 10 -262144
-1 -1;
#X obj 522 167 metro 30;
#X text 493 -73 INSTRUCTIONS: Please see readme for more info 1 Open
Display Window 2 Load an image/Video 3 Click and drag image to begin
scanning. Release mouse click to end scan 4 STITCH TOGETHER :-);
#N canvas 302 22 1280 722 images 0;
#X floatatom 173 169 5 0 1 0 - - -;
#X obj 103 214 translateXYZ;
#X obj 104 134 pix_image;
#X obj 108 70 openpanel;
#X obj 110 35 bng 15 250 50 0 empty imageload empty 17 7 0 10 -262144
-1 -1;
#X msg 108 92 open \$1;
#X obj 99 307 pix_texture;
#X floatatom 787 133 5 0 1 0 - - -;
#X obj 715 175 translateXYZ;
#X obj 676 -82 openpanel;
#X obj 678 -127 bng 15 250 50 0 empty videoload empty 17 7 0 10 -262144
-1 -1;
#X msg 676 -60 open \$1;
#X obj 712 219 pix_texture;
#X obj 706 122 pix_film;
#X obj 474 351 rectangle 4 4;
#X obj 639 202 r shape;
#X obj 641 231 + 1;
#X obj 701 346 triangle;
#X obj 775 349 cuboid 4 4 4;
#X obj 874 346 sphere 4 4;
#X obj 591 346 circle 4;
#X obj 963 348 torus;
#X floatatom 790 246 5 0 0 0 - X -;
#X floatatom 804 270 5 0 0 0 - Y -;
#X obj 555 67 gemhead 4;
#X msg 780 0 auto \$1;
#X obj 780 -18 tgl 15 0 empty empty empty 0 -6 0 8 -262144 -1 -1 0
1;
#X obj 804 108 bng 15 250 50 0 empty empty empty 17 7 0 10 -262144
-1 -1;
#X floatatom 750 97 5 0 0 0 - - -;
#X msg 760 72 1;
#X obj 861 -20 tgl 15 0 play empty empty 17 7 0 10 -262144 -1 -1 0
1;
#X obj 814 31 == 1;
#X obj 770 51 cyclone/gate;
#X obj 478 26 r inswitch;
#X text 458 -11 VRADIO for image/video;
#X obj 474 60 + 1;
#X obj 475 97 cyclone/gate 2;
#X obj 639 263 cyclone/gate 8;
#X obj 35 449 rectangle 4 4;
#X obj 200 300 r shape;
#X obj 202 329 + 1;
#X obj 262 444 triangle;
#X obj 336 447 cuboid 4 4 4;
#X obj 152 444 circle 4;
#X obj 524 446 torus;
#X floatatom 351 344 5 0 0 0 - X -;
#X floatatom 365 368 5 0 0 0 - Y -;
#X obj 15 338 cyclone/gate 8;
#N canvas 733 94 450 300 mouse 0;
#X floatatom 104 -2 5 0 0 0 - - -;
#X floatatom 150 22 5 0 0 0 - - -;
#X floatatom 160 -45 5 0 0 0 - - -;
#X obj 129 -70 gemmouse 8 8;
#X obj 114 -39 - 4;
#X obj 147 -4 - 4;
#X obj 149 50 * -1;
#X obj 93 33 s Xaxis;
#X obj 149 89 s Yaxis;
#X obj 163 -26 s click;
#X obj 35 11 outlet;
#X obj 215 35 outlet;
#X connect 0 0 7 0;
#X connect 0 0 10 0;
#X connect 1 0 6 0;
#X connect 2 0 9 0;
#X connect 3 0 4 0;
#X connect 3 1 5 0;
#X connect 3 2 2 0;
#X connect 4 0 0 0;
#X connect 5 0 1 0;
#X connect 6 0 8 0;
#X connect 6 0 11 0;
#X restore 115 189 pd mouse;
#N canvas 733 94 450 300 mouse 0;
#X floatatom 104 -2 5 0 0 0 - - -;
#X floatatom 150 22 5 0 0 0 - - -;
#X floatatom 160 -45 5 0 0 0 - - -;
#X obj 129 -70 gemmouse 8 8;
#X obj 114 -39 - 4;
#X obj 147 -4 - 4;
#X obj 149 50 * -1;
#X obj 93 33 s Xaxis;
#X obj 149 89 s Yaxis;
#X obj 163 -26 s click;
#X obj 35 11 outlet;
#X obj 215 35 outlet;
#X connect 0 0 7 0;
#X connect 0 0 10 0;
#X connect 1 0 6 0;
#X connect 2 0 9 0;
#X connect 3 0 4 0;
#X connect 3 1 5 0;
#X connect 3 2 2 0;
#X connect 4 0 0 0;
#X connect 5 0 1 0;
#X connect 6 0 8 0;
#X connect 6 0 11 0;
#X restore 732 155 pd mouse;
#N canvas 570 360 450 300 line 0;
#X obj -220 5 gemhead 51;
#X obj -220 37 pix_draw;
#X obj -220 66 colour 0.647 0.163 0.164;
#X obj -221 95 rectangle 0.01 4;
#X msg -55 88 draw line;
#X obj -104 1 pack 1 2 3;
#X msg -105 -29 1;
#X msg -55 -32 0;
#X obj -105 -61 bng 15 250 50 0 empty empty empty 17 7 0 10 -262144
-1 -1;
#X obj -131 -144 tgl 15 0 empty CLICK empty 17 7 0 10 -262144 -1 -1
0 1;
#X obj -149 -120 == 1;
#X obj -149 -96 cyclone/gate;
#X obj -65 -99 cyclone/gate;
#X obj -65 -123 == 0;
#X msg -259 -30 0.647;
#X msg -209 -35 0.163;
#X msg -163 -34 0.164;
#X msg -87 40 \$1 \$2 \$3;
#X connect 0 0 1 0;
#X connect 1 0 2 0;
#X connect 2 0 3 0;
#X connect 4 0 3 0;
#X connect 5 0 17 0;
#X connect 6 0 5 1;
#X connect 7 0 5 2;
#X connect 7 0 5 0;
#X connect 8 0 6 0;
#X connect 8 0 7 0;
#X connect 9 0 10 0;
#X connect 9 0 13 0;
#X connect 10 0 11 0;
#X connect 10 0 11 1;
#X connect 11 0 8 0;
#X connect 12 0 16 0;
#X connect 12 0 15 0;
#X connect 12 0 14 0;
#X connect 13 0 12 0;
#X connect 13 0 12 1;
#X connect 14 0 5 0;
#X connect 15 0 5 1;
#X connect 16 0 5 2;
#X connect 17 0 2 1;
#X restore 40 -149 pd line;
#X obj 319 202 loadbang;
#X msg 314 228 1;
#X obj 435 444 sphere 12 50;
#X obj 104 239 rotateXYZ;
#X floatatom 231 223 5 0 0 0 - rotate -;
#X obj 93 284 pix_lumaoffset;
#X floatatom 299 290 5 0 0 0 - fx -;
#X connect 0 0 1 3;
#X connect 1 0 54 0;
#X connect 2 0 1 0;
#X connect 3 0 5 0;
#X connect 4 0 3 0;
#X connect 5 0 2 0;
#X connect 6 0 47 1;
#X connect 7 0 8 3;
#X connect 8 0 12 0;
#X connect 9 0 11 0;
#X connect 10 0 9 0;
#X connect 11 0 13 0;
#X connect 12 0 37 1;
#X connect 13 0 8 0;
#X connect 13 2 27 0;
#X connect 15 0 16 0;
#X connect 16 0 37 0;
#X connect 22 0 14 1;
#X connect 22 0 20 1;
#X connect 22 0 17 1;
#X connect 22 0 18 1;
#X connect 22 0 19 1;
#X connect 22 0 21 1;
#X connect 23 0 14 2;
#X connect 23 0 18 2;
#X connect 23 0 19 2;
#X connect 23 0 21 2;
#X connect 24 0 36 1;
#X connect 25 0 13 0;
#X connect 26 0 25 0;
#X connect 28 0 13 1;
#X connect 29 0 28 0;
#X connect 30 0 31 0;
#X connect 30 0 26 0;
#X connect 31 0 32 0;
#X connect 32 0 29 0;
#X connect 33 0 35 0;
#X connect 35 0 36 0;
#X connect 36 0 2 0;
#X connect 36 1 13 0;
#X connect 37 0 14 0;
#X connect 37 1 20 0;
#X connect 37 2 17 0;
#X connect 37 3 18 0;
#X connect 37 4 19 0;
#X connect 37 5 21 0;
#X connect 39 0 40 0;
#X connect 40 0 47 0;
#X connect 45 0 38 1;
#X connect 45 0 43 1;
#X connect 45 0 41 1;
#X connect 45 0 42 1;
#X connect 45 0 44 1;
#X connect 45 0 53 1;
#X connect 46 0 38 2;
#X connect 46 0 42 2;
#X connect 46 0 44 2;
#X connect 46 0 53 2;
#X connect 47 0 38 0;
#X connect 47 1 43 0;
#X connect 47 2 41 0;
#X connect 47 3 42 0;
#X connect 47 4 53 0;
#X connect 47 5 44 0;
#X connect 48 0 1 1;
#X connect 48 1 1 2;
#X connect 49 0 8 1;
#X connect 49 1 8 2;
#X connect 51 0 52 0;
#X connect 52 0 47 0;
#X connect 52 0 36 0;
#X connect 54 0 56 0;
#X connect 55 0 54 1;
#X connect 55 0 54 2;
#X connect 55 0 54 3;
#X connect 56 0 6 0;
#X connect 57 0 56 1;
#X restore -235 17 pd images;
#X text -100 92 LOAD IMAGE;
#X text -96 190 [jpg/png];
#X text -10 91 LOAD VIDEO;
#X text 12 191 [?];
#X text -123 -86 Slit_Stitch 1 by Nicholas Brown-Hernandez;
#X text 29 -74 www.combjelly.ca;
#X connect 38 0 42 0;
#X connect 40 0 39 0;
#X connect 41 0 38 0;
#X connect 42 0 40 0;
